HIERARCHY
ROOT Hips
{
	OFFSET -14.64140 90.27770 -84.91600
	CHANNELS 6 Xposition Yposition Zposition Zrotation Xrotation Yrotation
	JOINT Spine
	{
		OFFSET 0.00000 13.20850 -1.60436
		CHANNELS 3 Zrotation Xrotation Yrotation
		JOINT Spine1
		{
			OFFSET 0.00000 8.61716 0.00000
			CHANNELS 3 Zrotation Xrotation Yrotation
			JOINT Spine2
			{
				OFFSET 0.00000 8.61717 0.00000
				CHANNELS 3 Zrotation Xrotation Yrotation
				JOINT Spine3
				{
					OFFSET 0.00000 8.61717 0.00000
					CHANNELS 3 Zrotation Xrotation Yrotation
					JOINT Neck
					{
						OFFSET 0.00000 11.07920 1.10792
						CHANNELS 3 Zrotation Xrotation Yrotation
						JOINT Neck1
						{
							OFFSET 0.00000 7.08032 0.00000
							CHANNELS 3 Zrotation Xrotation Yrotation
							JOINT Head
							{
								OFFSET 0.00000 7.08031 0.00000
								CHANNELS 3 Zrotation Xrotation Yrotation
								End site
								{
									OFFSET 0.00000 0.00000 0.00000
								}
							}
						}
					}
					JOINT RightShoulder
					{
						OFFSET -0.01000 7.91373 5.19711
						CHANNELS 3 Zrotation Xrotation Yrotation
						JOINT RightArm
						{
							OFFSET -18.41580 0.00000 0.00000
							CHANNELS 3 Zrotation Xrotation Yrotation
							JOINT RightForeArm
							{
								OFFSET -29.11090 0.00000 0.00000
								CHANNELS 3 Zrotation Xrotation Yrotation
								JOINT RightHand
								{
									OFFSET -24.65040 0.00000 0.00000
									CHANNELS 3 Zrotation Xrotation Yrotation
									JOINT RightHandThumb1
									{
										OFFSET -5.35114 -0.85590 3.97906
										CHANNELS 3 Zrotation Xrotation Yrotation
										JOINT RightHandThumb2
										{
											OFFSET -4.52789 0.00000 0.00000
											CHANNELS 3 Zrotation Xrotation Yrotation
											JOINT RightHandThumb3
											{
												OFFSET -2.46976 0.00000 0.00000
												CHANNELS 3 Zrotation Xrotation Yrotation
												End site
												{
													OFFSET 0.00000 0.00000 0.00000
												}
											}
										}
									}
									JOINT RightHandIndex1
									{
										OFFSET -14.26970 0.00000 2.88139
										CHANNELS 3 Zrotation Xrotation Yrotation
										JOINT RightHandIndex2
										{
											OFFSET -5.48836 0.00000 0.00000
											CHANNELS 3 Zrotation Xrotation Yrotation
											JOINT RightHandIndex3
											{
												OFFSET -3.01859 0.00000 0.00000
												CHANNELS 3 Zrotation Xrotation Yrotation
												End site
												{
													OFFSET 0.00000 0.00000 0.00000
												}
											}
										}
									}
									JOINT RightHandMiddle1
									{
										OFFSET -14.26970 0.00000 -0.09147
										CHANNELS 3 Zrotation Xrotation Yrotation
										JOINT RightHandMiddle2
										{
											OFFSET -6.17441 0.00000 0.00000
											CHANNELS 3 Zrotation Xrotation Yrotation
											JOINT RightHandMiddle3
											{
												OFFSET -3.56743 0.00000 0.00000
												CHANNELS 3 Zrotation Xrotation Yrotation
												End site
												{
													OFFSET 0.00000 0.00000 0.00000
												}
											}
										}
									}
									JOINT RightHandRing1
									{
										OFFSET -12.69180 0.00000 -3.06433
										CHANNELS 3 Zrotation Xrotation Yrotation
										JOINT RightHandRing2
										{
											OFFSET -5.62556 0.00000 0.00000
											CHANNELS 3 Zrotation Xrotation Yrotation
											JOINT RightHandRing3
											{
												OFFSET -3.56744 0.00000 0.00000
												CHANNELS 3 Zrotation Xrotation Yrotation
												End site
												{
													OFFSET 0.00000 0.00000 0.00000
												}
											}
										}
									}
									JOINT RightHandPinky1
									{
										OFFSET -11.11390 0.00000 -6.03719
										CHANNELS 3 Zrotation Xrotation Yrotation
										JOINT RightHandPinky2
										{
											OFFSET -4.52789 0.00000 0.00000
											CHANNELS 3 Zrotation Xrotation Yrotation
											JOINT RightHandPinky3
											{
												OFFSET -2.46976 0.00000 0.00000
												CHANNELS 3 Zrotation Xrotation Yrotation
												End site
												{
													OFFSET 0.00000 0.00000 0.00000
												}
											}
										}
									}
								}
							}
						}
					}
					JOINT LeftShoulder
					{
						OFFSET 0.01000 7.91373 5.19711
						CHANNELS 3 Zrotation Xrotation Yrotation
						JOINT LeftArm
						{
							OFFSET 18.41580 0.00000 0.00000
							CHANNELS 3 Zrotation Xrotation Yrotation
							JOINT LeftForeArm
							{
								OFFSET 29.11090 0.00000 0.00000
								CHANNELS 3 Zrotation Xrotation Yrotation
								JOINT LeftHand
								{
									OFFSET 24.65040 0.00000 0.00000
									CHANNELS 3 Zrotation Xrotation Yrotation
									JOINT LeftHandThumb1
									{
										OFFSET 5.35114 -0.85590 3.97906
										CHANNELS 3 Zrotation Xrotation Yrotation
										JOINT LeftHandThumb2
										{
											OFFSET 4.52789 0.00000 0.00000
											CHANNELS 3 Zrotation Xrotation Yrotation
											JOINT LeftHandThumb3
											{
												OFFSET 2.46977 0.00000 0.00000
												CHANNELS 3 Zrotation Xrotation Yrotation
												End site
												{
													OFFSET 0.00000 0.00000 0.00000
												}
											}
										}
									}
									JOINT LeftHandIndex1
									{
										OFFSET 14.26970 0.00000 2.88139
										CHANNELS 3 Zrotation Xrotation Yrotation
										JOINT LeftHandIndex2
										{
											OFFSET 5.48836 0.00000 0.00000
											CHANNELS 3 Zrotation Xrotation Yrotation
											JOINT LeftHandIndex3
											{
												OFFSET 3.01859 0.00000 0.00000
												CHANNELS 3 Zrotation Xrotation Yrotation
												End site
												{
													OFFSET 0.00000 0.00000 0.00000
												}
											}
										}
									}
									JOINT LeftHandMiddle1
									{
										OFFSET 14.26970 0.00000 -0.09147
										CHANNELS 3 Zrotation Xrotation Yrotation
										JOINT LeftHandMiddle2
										{
											OFFSET 6.17440 0.00000 0.00000
											CHANNELS 3 Zrotation Xrotation Yrotation
											JOINT LeftHandMiddle3
											{
												OFFSET 3.56744 0.00000 0.00000
												CHANNELS 3 Zrotation Xrotation Yrotation
												End site
												{
													OFFSET 0.00000 0.00000 0.00000
												}
											}
										}
									}
									JOINT LeftHandRing1
									{
										OFFSET 12.69180 0.00000 -3.06433
										CHANNELS 3 Zrotation Xrotation Yrotation
										JOINT LeftHandRing2
										{
											OFFSET 5.62556 0.00000 0.00000
											CHANNELS 3 Zrotation Xrotation Yrotation
											JOINT LeftHandRing3
											{
												OFFSET 3.56744 0.00000 0.00000
												CHANNELS 3 Zrotation Xrotation Yrotation
												End site
												{
													OFFSET 0.00000 0.00000 0.00000
												}
											}
										}
									}
									JOINT LeftHandPinky1
									{
										OFFSET 11.11390 0.00000 -6.03719
										CHANNELS 3 Zrotation Xrotation Yrotation
										JOINT LeftHandPinky2
										{
											OFFSET 4.52789 0.00000 0.00000
											CHANNELS 3 Zrotation Xrotation Yrotation
											JOINT LeftHandPinky3
											{
												OFFSET 2.46976 0.00000 0.00000
												CHANNELS 3 Zrotation Xrotation Yrotation
												End site
												{
													OFFSET 0.00000 0.00000 0.00000
												}
											}
										}
									}
								}
							}
						}
					}
					JOINT pCube4
					{
						OFFSET 0.00000 10.91090 1.10792
						CHANNELS 3 Zrotation Xrotation Yrotation
						End site
						{
							OFFSET 0.00000 0.00000 0.00000
						}
					}
				}
			}
		}
	}
	JOINT RightUpLeg
	{
		OFFSET -9.98441 0.00000 0.00000
		CHANNELS 3 Zrotation Xrotation Yrotation
		JOINT RightLeg
		{
			OFFSET 0.00000 -42.11790 0.00000
			CHANNELS 3 Zrotation Xrotation Yrotation
			JOINT RightFoot
			{
				OFFSET 0.00000 -45.00020 -0.00001
				CHANNELS 3 Zrotation Xrotation Yrotation
				JOINT RightForeFoot
				{
					OFFSET 0.00000 -3.74820 0.00000
					CHANNELS 3 Zrotation Xrotation Yrotation
					JOINT RightToeBase
					{
						OFFSET 0.00000 0.06325 14.43120
						CHANNELS 3 Zrotation Xrotation Yrotation
						End site
						{
							OFFSET 0.00000 0.00000 0.00000
						}
					}
				}
			}
		}
	}
	JOINT LeftUpLeg
	{
		OFFSET 9.98441 0.00000 0.00000
		CHANNELS 3 Zrotation Xrotation Yrotation
		JOINT LeftLeg
		{
			OFFSET 0.00000 -42.11800 0.00000
			CHANNELS 3 Zrotation Xrotation Yrotation
			JOINT LeftFoot
			{
				OFFSET 0.00000 -45.00070 0.00000
				CHANNELS 3 Zrotation Xrotation Yrotation
				JOINT LeftForeFoot
				{
					OFFSET 0.00000 -3.74824 0.00000
					CHANNELS 3 Zrotation Xrotation Yrotation
					JOINT LeftToeBase
					{
						OFFSET 0.00000 0.06325 14.43110
						CHANNELS 3 Zrotation Xrotation Yrotation
						End site
						{
							OFFSET 0.00000 0.00000 0.00000
						}
					}
				}
			}
		}
	}
}
MOTION
Frames: 4
Frame Time: 0.050000
0.03985531108966962 -0.02657744095515728 0.02196543891072645 -0.021857134592111433 -0.004912030554457145 0.01768687834080418 4.871764087941651 2.927244894741336 -2.209358079009071 -0.662903328635599 3.765892579774982 0.35892075867867296 -0.6087195879025179 -1.641496711641997 0.6171202862615129 -0.43926960681540017 -0.6018745856579955 -0.2904526310463958 0.19876669147574266 16.604595802932895 -3.0478279954385754 0.3458438050842911 -0.7110450221359733 -6.1646796451274035 1.3275447403480465 -18.185735534340708 -0.5813264796719094 -13.925871145981064 4.27980425828572 -17.874067222962918 82.46898035254017 -11.239920922844085 32.10154733063781 23.835167635940472 10.686682594600898 107.41035205963841 9.388075451244942 -0.22714449481476978 -0.07283004173325491 4.492510218554858 -0.14852356809693087 -1.6107609670224683 -0.03504823505423235 -0.021041574434469912 -56.21242485076577 -0.018476345902246363 0.013653585024614674 -56.256339413076304 -38.78047062537531 -0.011496823768600974 -0.028402374039282658 -0.011391589561331381 -0.026827695405322403 -0.0158167743118388 0.008323327583982172 0.020672078593989267 0.01272394596799063 -36.71845809193586 0.004482854771932201 0.014534362569206998 0.01147085372223429 -0.015217159140871284 0.009225490917131263 -0.03855738321082349 -0.004416146740758468 -3.14852443327737e-05 -19.767535493445454 -0.024180910010150138 0.03144764397598096 0.036974687789652225 -0.032624573973476775 -0.033177370476245784 -0.00813157154315713 -0.04188632552110694 0.018633905978189157 24.05432684318907 -0.04638436663546405 -0.029106088072569224 28.891680197373788 -0.0034132581502505843 -0.006593730307116492 28.890009439129184 -0.011941430697421417 -0.02541791104066928 14.720161531252192 3.194168370430298 14.985071884818058 -77.70010200706807 1.2550710907012195 -37.30590764869463 -34.81020036538856 16.220818964446263 -108.19791687343621 -12.84084765617986 3.89184163482208 -6.122191136699773 -0.4516304192591822 0.10623093142579418 -8.082801773229884 0.029821095199905712 -0.013712577535709897 44.55047807251981 -0.01293323730267099 0.0041604405328959804 44.58371117947688 12.44861419501776 -0.010400063508252911 -0.01840282699086262 0.04376432035017814 0.03541482239841386 0.02699170562829187 0.03232737215858448 -0.013264679599713003 0.027566130185482145 11.11423603476002 0.013898706564141838 -0.045509837863081305 -0.025962596992779714 -0.030564691358711846 -0.025492005781719555 0.004774703540077122 0.002132735871848608 0.039816410412720556 4.809539485253282 -0.008381449392422762 0.034918279168288296 0.007528689738177186 0.045054730842003905 0.01661406176279944 -0.042047441725441004 -0.015578103292573352 0.0213743780131282 -5.63641260215942 -0.04153324527726968 -0.04422272352670498 -6.71851026516055 0.02705017050350939 0.018256490113960053 -6.7536068396946325 0.028610032312424084 0.018376101259218562 -0.03021048804977431 -0.011188378129667005 0.02521455016453939 8.011603561160657 3.529372207402746 -19.240226031485605 -0.03177286097530691 10.414396895119529 0.027775096540521016 -5.648991215612505 -15.659479442467664 3.2198803198883694 -0.020639286700450614 0.013515439694606961 0.04470061127332933 0.020329560507220738 4.688495231508308 0.02877684015327142 12.464726717591908 -8.234897269430673 6.871968114884223 -0.021084434585838738 46.40921370166922 0.008533349948907056 -4.328856620711845 -14.703105438011812 -3.810067570084933 -0.005641900366959575 0.03856687048630101 0.038162258900111684 0.004563034439348564 -10.740736776656005 0.017287895157493568 
0.004112568408275812 0.01523169418661547 -0.033428628830791556 -0.04565876137569249 0.007296965416957628 0.00416629113231347 5.015380815488602 2.9858911684042138 -2.2008198924326874 -0.6806238525546829 3.8190051349754133 0.31197599007476884 -0.6035636416882408 -1.621839458981452 0.4776033897259291 -0.36559978037400576 -0.49975275441231504 -0.30460636829677057 0.09918302539031924 16.49523845049306 -2.941826891616096 0.3207828650655693 -0.6401082331433363 -5.835541571488369 1.2184007928317695 -18.207639627841807 -0.5960548652813047 -14.112551733828207 4.345060087873328 -17.918354772043322 83.5711085606918 -10.649813814312797 30.962653787331508 26.595692441484385 10.756603847977791 106.7268280791823 9.197106481294831 -0.2580474940340281 -0.5088614487551033 4.547887884131432 -0.08551658721295649 -1.5968642358472764 0.047167972333271205 -0.021306338949056206 -56.25658769081034 0.03691289917116361 0.016078858370600774 -56.221285285690534 -38.8007603353165 -0.04107495306908031 0.049656770901494576 -0.006989220898021148 0.024618809440309503 0.0015726321515404265 -0.019928415877217755 -0.04260078102180353 0.030633145018341263 -36.69137204539451 -0.0006624530834518605 0.033300121472616136 -0.031130721541281273 -0.014697798888524542 0.01723546533898357 -0.0004297136123306178 0.042830429534724324 0.017248796774487794 -19.78816704005779 0.002327690626497711 0.015239661493078645 0.02399222595539824 0.003124380278303094 -0.04875847346531202 0.02821751975369576 -0.03682366263306977 -0.02518078206723709 24.060607091012677 0.028288498481781825 -0.0018698117098387274 28.83433177876934 0.012631382311864687 0.0137182389158757 28.85458372975398 -0.005060324837877204 -0.035782301774512866 15.007288006817916 3.2833781297079443 14.978143015301107 -78.31420615225731 0.1059509949248829 -37.468820247093156 -41.14059794215739 16.721151188656975 -109.46517098304723 -12.127038064650424 3.2124114257702066 -5.193669163805344 -0.49212811644647153 0.07049988622858935 -8.095516208018786 -0.013591391509665566 0.042949998807215846 44.52987193408665 0.0015111522833775265 -0.02181931584150746 44.52350229445645 12.465575302253585 0.0003882317159940065 0.03730990663999096 -0.047795003812579305 -0.0008343629937692232 -0.03529157837529744 -0.04320376428047336 -0.02005309588951796 0.03869228560003616 11.140911856536286 0.030624862778136763 -0.02119660492723416 0.014015557249014382 0.03312780423199078 -0.03285505762327754 -0.03356617814259997 -0.01348411623463729 0.041708363547231286 4.793764265381575 -0.004529218287525893 -0.021216803433905314 0.011889365265515 0.019034740477414436 0.01591046916985608 -0.019889410410131023 -0.018332034651323395 0.014761871828943347 -5.649163783632992 0.002131386517648983 -0.049493990378482414 -6.6814317593549655 0.022063664892807422 0.021446155540055235 -6.7659236008215835 0.007540687401252417 0.014050920439663238 0.04128911285371594 0.0028390003274423154 -0.025108467283598074 7.9985736222799755 3.5267876427784906 -19.1789696912772 0.04377476495704003 10.34971994037653 -0.0009213964482368379 -5.586709093709416 -15.646849367593838 3.2267010642260288 0.011259885523798365 0.01309132106606176 0.03314500827797655 -0.03735204726818302 4.733272038032007 0.038591093917000614 12.465545822562765 -8.212066631403866 6.927648102335734 -0.026345403748653354 46.37979143412088 0.02831815667621311 -4.325008861342124 -14.759607415063774 -3.822102684169569 -0.03864767230303778 -0.030559535465652616 0.01520972614394267 -0.01592661630871605 -10.701491434249746 -0.036695905619335036 
-0.03511629273586877 -0.002515602067839833 0.0040664359760438995 -0.007817583935471946 0.04658554020051803 0.040050848198948635 4.992002144237736 3.0055212658883255 -2.222101703844352 -0.6394120707669688 3.78086135290717 0.3347507084940511 -0.6791738847387714 -1.6515542228284825 0.34307785963456566 -0.40947177616546565 -0.4517286667402967 -0.3452423344548837 0.12362966818947616 16.35864143384231 -2.840013119420239 0.29237936638931517 -0.7500250666676582 -5.8429474549371605 1.21126755830272 -18.28065715803601 -0.5611401582697654 -14.359069081819195 4.345379697489149 -18.004747788541906 84.72305051657098 -10.904379203784018 30.617144879641348 28.342282438221208 10.490627766755889 105.63880782127839 9.2807050143057 -0.2885735707039645 -0.9648291183341788 4.554818300883027 -0.10715274665227074 -1.5541555115761831 0.0014259026201339957 -0.047409569645913176 -56.215193657507385 -0.04034789651752329 0.04860030425495061 -56.22823166309897 -38.7387176375738 -0.006636996700184538 0.02607132839459805 -0.017741346423824512 -0.03234950359257967 0.03458591862746531 -0.04339250603097587 0.03715381257756906 0.00267590955792279 -36.71745173293468 0.016760884188165504 -0.01649057495957638 0.049371079260594336 0.028250463437614226 -0.0227284862436488 0.027678410280932216 0.03465894141852802 -0.03580767883028529 -19.713009530829183 0.038573916273675686 -0.017421643327363137 -0.03378859686284061 -0.031791932386766815 0.00242109094701022 -0.03309240375087521 0.010018425085702507 -0.03152615982199872 24.037275180084652 0.02458618912659488 0.03722082154025765 28.820791834942323 0.0022674680995742463 0.02917585163131935 28.849877425000606 0.0018754249741117252 -0.004074430570896152 15.230605821712343 3.3170868274538012 15.021720260112067 -78.71089102806029 -0.8998218305234275 -36.743051922212096 -46.086778491764036 16.541187908517987 -109.93745275446861 -11.568330309313875 2.7218986618664487 -4.292513198257465 -0.5035624647479605 0.030554436827654456 -8.143687982618136 -0.03214493399200313 0.03259710713042532 44.574406646826 -0.023670547387252723 -0.03931110300398732 44.59379940836693 12.468628833095986 0.023945148106465315 0.03186744477685332 0.026741088357724162 0.028645958295833135 0.026765402279636873 0.02056710339043439 0.04123534898636325 -0.002205683415815436 11.090222136320246 -0.049108801085257656 -0.024723150474539747 0.00922496491692774 -0.03436001110233328 0.043547070931911326 0.01758191559411634 -0.036258788134345105 0.007332127727422415 4.775664635661483 -0.03197717565133632 -0.013022131406492875 -0.03733684565217028 -0.046393210704003526 -0.0016879833911137396 0.008437552532660526 0.03214190204548469 0.015222585878608693 -5.582756307513654 -0.03854064337787957 -0.021655750655934697 -6.738626670122135 -0.03403171664761946 -0.018059254910576444 -6.714737708134818 0.014401331305453378 0.007750942637468342 0.03542888505150009 0.034551109906987613 -0.01041917120086428 8.021364798851844 3.4808280354969248 -19.190581326422688 0.00969331488725742 10.407678904116134 -0.021529644245463945 -5.613327984042215 -15.684773917029277 3.2214942912305666 0.029528233648167364 -0.00022923037714379007 -0.04670072270864454 -0.04292011368000467 4.71752179521462 -0.018644016003332688 12.46597201347058 -8.251866188532254 6.872541701965189 -0.03113317548877034 46.408676935830854 -0.03903991420233072 -4.344235017880084 -14.789037254597389 -3.829331166012427 0.02337344044376454 0.011431186612705597 0.033268937347996935 -0.020954019448261706 -10.76696306867164 -0.03998737163408253 
-0.0001954162455100395 -0.041681479500597744 0.03152648188001229 0.037338499458325174 0.035089659444634554 -0.04851022317700783 4.874574588650432 3.1758202045119783 -2.2270092599719575 -0.6996518616287938 3.7124701125698527 0.3655803350741905 -0.7100721301404884 -1.5580665695284404 0.3181616016918469 -0.4008878433998927 -0.4024231582116696 -0.2984788520910567 0.0894419786759435 16.04640997076824 -2.8531302495754582 0.28948840897432043 -0.8020709217309846 -5.913246795722028 1.179177465391474 -18.32267729513981 -0.609892940028615 -14.347455521458121 4.3964551769304325 -17.856471572142766 85.70418771820722 -10.696988045692526 30.19052247517282 29.24379946186493 9.889492589033726 104.93779328550843 9.295686354075539 -0.23624307663173996 -1.4583033422019405 4.5496106006585695 -0.07757419656986178 -1.6051442112468102 -0.010669309013576187 0.03381254595353563 -56.24764203821512 0.0019947545817870773 0.011355374200959027 -56.20623799705232 -38.79070298434474 0.010869555088600352 -0.030391668254394693 -0.04198671852769898 -0.02428191549142849 -0.019182029672020665 0.02097239639402087 0.036919158301214124 -0.033423573332514 -36.70719511153712 0.024210058205277066 -0.019219165029211536 0.014609215834102716 -0.006185766731147248 0.04849490789347655 -0.007677178018872917 0.01271334384935524 -0.02373871415111996 -19.762308586394745 0.017665691486513466 0.04894221650559149 -0.013668280891493467 -0.00862217457235932 -0.010568816813987933 -0.0029717948533925136 0.042291649317634544 0.032145098749349184 24.039717468414757 0.033247372227589576 -0.03734853614381434 28.836892700474216 -0.002719855452584263 -0.02526257526022387 28.903750146590657 0.037426801319607454 0.010614269195029717 15.183377551684659 3.2707489529002283 14.780037639652058 -79.15969852290412 -1.2820191041135298 -35.66329827638787 -50.31081202134482 15.882492959716448 -110.06109767299674 -10.858069498773347 2.095527445666927 -3.3499608161905305 -0.49993159289263345 0.046214878426409374 -8.104426748090527 0.028626663701792184 -0.028439648675439914 44.57333109678712 0.030236692550401637 0.0006600811910856839 44.61382508549218 12.493781291294727 0.049575627332418395 0.006773004041938946 0.016539119180861643 0.025483079917081142 0.023442721116008744 0.02651502571226001 0.009412814772694936 -0.0195186044286756 11.128479458856384 -0.029033704640015322 -0.009689639621395423 -0.039798247244741 0.04417274628931167 0.01292050636952716 0.005757002061581716 0.0017131781530542317 0.012854812786156779 4.789322239686694 -0.047917519820573816 -0.04017767745616545 0.044302505799263654 0.018869849571595734 0.023007123178973233 0.0317567334138517 -0.02324249827841198 -0.023632757271009344 -5.58832832768646 0.03878031193558416 0.0432519959366088 -6.751808934118025 -0.037645071897069365 0.04816656429237682 -6.727892146384907 0.03455850342324525 -0.0029451130620470212 0.04861260296828732 -0.03676626066667955 -0.02523871578571887 8.009641785118252 3.468761394255907 -19.188165947087057 0.003920946288204857 10.384735019949249 -0.0117405954903908 -5.617037153860169 -15.627913498270809 3.166159205046347 -0.01656616118929158 -0.0025881344951272974 0.0009746043469369011 -0.04748234238746471 4.706817834878877 -0.04522685275784371 12.474650819858025 -8.239324982073185 6.840958569832624 0.021386084954305638 46.34078533777016 0.03660112988114961 -4.319526691030195 -14.791490434537499 -3.8150984812457436 0.022308545419290546 0.018775831997722627 0.019269509606508854 0.016011222109364256 -10.732471937509146 -0.04296426307551082 
